<svg xmlns:xlink="http://www.w3.org/1999/xlink" xmlns="http://www.w3.org/2000/svg" aria-label="people" class="AssemblyIcon AssemblyIcon--small" role="img" width="24"  height="24" ><defs><symbol id="people" viewBox="0 0 24 24">
    <path fill-rule="evenodd" clip-rule="evenodd" d="M9.49997 11.9966C11.5091 11.9966 13 10.4311 13 8.49832C13 6.5655 11.5091 5 9.49997 5C7.49088 5 5.99996 6.5655 5.99996 8.49832C5.99996 10.4311 7.49088 11.9966 9.49997 11.9966ZM9.49997 6.74916C10.5 6.74916 11.3181 7.53628 11.3181 8.49832C11.3181 9.46035 10.5 10.2475 9.49997 10.2475C8.49997 10.2475 7.68179 9.46035 7.68179 8.49832C7.68179 7.53628 8.49997 6.74916 9.49997 6.74916ZM18.3636 8.50499C18.3636 10.4378 16.7364 12.0033 14.7273 12.0033C14.3 12.0033 13.9 11.9159 13.5182 11.7934C14.2727 10.8926 15 10.0043 15 8.50499C15 7.00572 14.2727 6.11739 13.5182 5.21658C13.9 5.09413 14.3 5.00668 14.7273 5.00668C16.7364 5.00668 18.3636 6.57217 18.3636 8.50499ZM18 16.3764C18 14.9071 17.4909 13.8051 16.2455 12.9918C18.7546 13.3416 22 14.4698 22 16.3764V18.0001C22 18.5524 21.5523 19.0001 21 19.0001H18V16.3764ZM2 16.3764C2 14.05 7.07273 13.003 9.5 13.003C11.9273 13.003 17 14.05 17 16.3764V18.0001C17 18.5524 16.5523 19.0001 16 19.0001L3 19.0001C2.44772 19.0001 2 18.5524 2 18.0001V16.3764ZM4 16.5013V17.0011H15V16.5013C14.8182 15.8804 11.9545 15.002 9.5 15.002C7.04546 15.002 4.18182 15.8716 4 16.5013Z"></path>
</symbol></defs><noscript fill="#ffffff"></noscript><use xlink:href="#people" fill="#ffffff"></use><noscript fill="#ffffff"></noscript></svg>