<svg xmlns:xlink="http://www.w3.org/1999/xlink" xmlns="http://www.w3.org/2000/svg" aria-label="search" class="AssemblyIcon AssemblyIcon--small" role="img" width="24"  height="24" ><defs><symbol id="search" viewBox="0 0 24 24">
    <path fill-rule="evenodd" clip-rule="evenodd" d="M10.25 15.5C13.1495 15.5 15.5 13.1495 15.5 10.25C15.5 7.35051 13.1495 5 10.25 5C7.3505 5 5 7.3505 5 10.25C5 13.1495 7.3505 15.5 10.25 15.5ZM15.8133 14.8991C16.8662 13.6405 17.5 12.0193 17.5 10.25C17.5 6.24594 14.2541 3 10.25 3C6.24594 3 3 6.24594 3 10.25C3 14.2541 6.24594 17.5 10.25 17.5C11.7629 17.5 13.1676 17.0366 14.3298 16.244L18.7929 20.7071C19.1834 21.0976 19.8166 21.0976 20.2071 20.7071C20.5976 20.3166 20.5976 19.6834 20.2071 19.2929L15.8133 14.8991Z"></path>
</symbol></defs><noscript fill="#D9DDE8"></noscript><use xlink:href="#search" fill="#D9DDE8"></use><noscript fill="#D9DDE8"></noscript></svg>