<svg xmlns:xlink="http://www.w3.org/1999/xlink" xmlns="http://www.w3.org/2000/svg" class="AssemblyIcon AssemblyIcon--medium" role="presentation" width="24"  height="24" ><defs><symbol id="settings" viewBox="0 0 24 24">
    <path fill-rule="evenodd" clip-rule="evenodd" d="M10.1487 22H13.8476C14.5874 22 15.2072 21.4729 15.3072 20.8092L15.5771 18.9449C15.837 18.8082 16.0969 18.6618 16.3569 18.4959L18.1563 19.1986C18.8461 19.4622 19.6159 19.1889 19.9558 18.5837L21.8152 15.4407C22.1651 14.8258 22.0051 14.0644 21.4453 13.6252L19.9258 12.4636L19.9258 12.4636C19.9358 12.3172 19.9458 12.1708 19.9458 12.0146C19.9458 11.8585 19.9358 11.7121 19.9258 11.5657L19.9258 11.5656L21.4453 10.4041C22.0051 9.97462 22.1651 9.21327 21.8052 8.56906L19.9658 5.4651C19.6259 4.85993 18.8561 4.57687 18.1463 4.83065L16.3469 5.53343C16.0869 5.3675 15.827 5.22108 15.5571 5.08443L15.2872 3.23963C15.1972 2.52709 14.5774 2 13.8376 2H10.1387C9.40896 2 8.78915 2.53685 8.69918 3.22011L8.42926 5.08443C8.16934 5.22108 7.90942 5.3675 7.6495 5.53343L5.84005 4.82089C5.16025 4.55735 4.39049 4.83065 4.05059 5.43582L2.20115 8.54954C1.83126 9.15471 1.98122 9.94534 2.57104 10.3846L4.09058 11.5461C4.08058 11.6925 4.07058 11.8487 4.07058 11.9951C4.07058 12.1513 4.08058 12.2977 4.09058 12.4441L4.09058 12.4441L2.56104 13.6057C2.00121 14.0351 1.85126 14.7965 2.20115 15.4407L4.03059 18.5349C4.37049 19.1401 5.14026 19.4231 5.84005 19.1694L7.6395 18.4666C7.89942 18.6325 8.15934 18.7789 8.42926 18.9156L8.69918 20.7604C8.78915 21.4729 9.40896 22 10.1487 22ZM13.5 20H10.5L10.2387 17.5588L9.70887 17.3441C9.23901 17.1586 8.80914 16.9146 8.37927 16.5925L7.92941 16.2509L5.54014 17.1879L4.16056 14.8453L6.18994 13.3031L6.11996 12.7565C6.07997 12.5124 6.05998 12.2489 6.05998 11.9951C6.06505 11.7372 6.08507 11.4797 6.11996 11.224L6.18994 10.6774L4.16056 9.13519L5.55013 6.80234L7.92941 7.72962L8.37927 7.40752C8.83914 7.06589 9.279 6.82186 9.71887 6.63641L10.2487 6.43143L10.5 4H13.5L13.7476 6.43143L14.2675 6.64617C14.7273 6.83163 15.1772 7.08541 15.5971 7.39775L16.0469 7.73939L18.4362 6.80234L19.8258 9.14495L17.7964 10.6872L17.8664 11.2338C17.8964 11.4778 17.9264 11.7316 17.9264 11.9951C17.9264 12.2496 17.8984 12.4858 17.8695 12.7302L17.8664 12.7565L17.7964 13.3031L19.8258 14.8453L18.4462 17.1879L16.0669 16.2509L15.6171 16.5827C15.1572 16.9146 14.7174 17.1684 14.2775 17.3441L13.7476 17.5588L13.5 20ZM15.0013 12.0001C15.0013 13.6569 13.6581 15.0001 12.0013 15.0001C10.3444 15.0001 9.00128 13.6569 9.00128 12.0001C9.00128 10.3432 10.3444 9.00005 12.0013 9.00005C13.6581 9.00005 15.0013 10.3432 15.0013 12.0001Z"></path>
</symbol></defs><noscript fill="#ffffff"></noscript><use xlink:href="#settings" fill="#ffffff"></use><noscript fill="#ffffff"></noscript></svg>