<svg xmlns:xlink="http://www.w3.org/1999/xlink" xmlns="http://www.w3.org/2000/svg" class="AssemblyIcon AssemblyIcon--small" aria-label="Twitter" width="24"  height="24" ><defs><symbol id="twitter" viewBox="0 0 24 24">
    <path fill-rule="evenodd" clip-rule="evenodd" d="M22 5.89411C21.2651 6.21538 20.4739 6.43265 19.644 6.52972C20.4915 6.03048 21.1419 5.23886 21.4483 4.29585C20.6547 4.75811 19.7778 5.0944 18.841 5.27468C18.0944 4.49 17.0273 4 15.8463 4C13.5819 4 11.7447 5.8086 11.7447 8.039C11.7447 8.35565 11.7799 8.66306 11.8503 8.9589C8.4401 8.79018 5.41727 7.18382 3.39226 4.73731C3.03892 5.33593 2.837 6.03048 2.837 6.7701C2.837 8.17075 3.56131 9.4073 4.66244 10.1319C3.99096 10.1122 3.35705 9.92849 2.80296 9.62802V9.67772C2.80296 11.6354 4.21753 13.2683 6.09579 13.6381C5.75183 13.7329 5.38909 13.7803 5.01462 13.7803C4.75048 13.7803 4.49222 13.756 4.24218 13.7086C4.76457 15.3127 6.27892 16.481 8.07501 16.5122C6.67101 17.5962 4.90075 18.2423 2.97905 18.2423C2.648 18.2423 2.32048 18.2238 2 18.1868C3.81605 19.3309 5.9737 20 8.28984 20C15.8381 20 19.9644 13.8462 19.9644 8.5082C19.9644 8.33254 19.9609 8.15688 19.9539 7.98469C20.7556 7.41495 21.4518 6.70423 22 5.89411Z"></path>
</symbol></defs><noscript fill="#F6F7FB"></noscript><use xlink:href="#twitter" fill="#F6F7FB"></use><noscript fill="#F6F7FB"></noscript></svg>