<svg xmlns:xlink="http://www.w3.org/1999/xlink" xmlns="http://www.w3.org/2000/svg" aria-label="verified stamp" class="AssemblyIcon AssemblyIcon--small" role="img" width="24"  height="24" ><defs><symbol id="verified-stamp" viewBox="0 0 24 24">
    <path fill-rule="evenodd" clip-rule="evenodd" d="M10.4104 4.13416C10.6185 3.872 10.8379 3.6076 11.1079 3.39157H11.109C11.379 3.17442 11.721 3.00002 12.1125 3.00002C12.504 2.99777 12.8415 3.17329 13.1059 3.38707C13.3702 3.60422 13.5817 3.86863 13.7842 4.12966C14.187 4.6506 14.5695 5.13554 14.8732 5.26155C15.1781 5.38869 15.7968 5.31556 16.4561 5.23567C16.7857 5.19517 17.1254 5.16029 17.4663 5.19517C17.8083 5.23117 18.1694 5.34819 18.4439 5.62497C18.7173 5.90175 18.8298 6.26292 18.8613 6.60497C18.8917 6.94701 18.8557 7.2868 18.8129 7.61534C18.7252 8.27467 18.6442 8.89125 18.7679 9.19729C18.8917 9.50445 19.3732 9.89037 19.8907 10.2999C20.16 10.5002 20.4057 10.7305 20.623 10.9863C20.8368 11.254 21.0044 11.5916 20.9999 11.9854C20.9954 12.3769 20.8177 12.7156 20.5983 12.9823C20.3778 13.25 20.11 13.4683 19.8468 13.6731C19.3203 14.0838 18.8298 14.4697 18.6993 14.7769C18.5677 15.084 18.6318 15.7006 18.7027 16.3588C18.7376 16.6885 18.7691 17.0294 18.7286 17.3714C18.6892 17.7123 18.5666 18.0758 18.2853 18.3537C18.0041 18.6316 17.6418 18.7497 17.2987 18.7857C16.9567 18.8217 16.617 18.7868 16.2885 18.7486C15.6315 18.671 15.015 18.5989 14.7067 18.7272C14.3985 18.8544 14.0059 19.3427 13.5896 19.8647C13.3815 20.1258 13.1621 20.3913 12.8921 20.6096C12.6221 20.8267 12.2801 21 11.8875 21C11.496 21.0011 11.1608 20.829 10.8964 20.6118C10.632 20.3958 10.4183 20.1314 10.2158 19.8715C9.81302 19.3505 9.43277 18.8645 9.12903 18.7385C8.82303 18.6124 8.20541 18.6856 7.54504 18.7643C7.21655 18.8026 6.87455 18.8386 6.53255 18.8026C6.19168 18.7688 5.83056 18.6518 5.55606 18.375C5.28269 18.0983 5.17019 17.736 5.13869 17.3939C5.10719 17.0519 5.14657 16.7121 5.18932 16.3824C5.27594 15.7231 5.35469 15.1065 5.23094 14.8005C5.10832 14.4944 4.62795 14.1096 4.11158 13.7001C3.85396 13.4964 3.59071 13.2804 3.37696 13.0138C3.16321 12.7471 2.99559 12.4073 3.00009 12.0158C3.00459 11.6231 3.18121 11.2833 3.40171 11.0155C3.62221 10.7489 3.88995 10.5328 4.1532 10.3269C4.6797 9.91625 5.17019 9.52808 5.30069 9.22204C5.43119 8.91488 5.36819 8.2983 5.29619 7.64009C5.26244 7.31043 5.23319 6.97064 5.27369 6.62859C5.31307 6.28768 5.43344 5.92426 5.71469 5.64635C5.99593 5.36844 6.36043 5.2503 6.70243 5.21429C7.03937 5.18758 7.37825 5.19891 7.71267 5.24805C8.37079 5.32681 8.98728 5.39769 9.29553 5.27055C9.60377 5.14341 9.99414 4.6551 10.4104 4.13416ZM15.773 9.19097C15.5792 9.19361 15.3952 9.27623 15.2649 9.41912V9.41679L11.2081 13.7593L9.41288 12.0385C9.27717 11.9064 9.09338 11.8349 8.90368 11.8403C8.71397 11.8458 8.53465 11.9278 8.40685 12.0676C8.1387 12.3598 8.1438 12.809 8.4185 13.0951L8.43249 13.1114L10.4959 15.0876C10.698 15.2843 10.9717 15.3908 11.2543 15.3825C11.5368 15.3741 11.8037 15.2518 11.9938 15.0434L16.2989 10.4339C16.5672 10.1413 16.5621 9.6917 16.2873 9.40518C16.153 9.2659 15.9668 9.18833 15.773 9.19097Z"></path>
</symbol></defs><noscript fill="#2E3856"></noscript><use xlink:href="#verified-stamp" fill="#2E3856"></use><noscript fill="#2E3856"></noscript></svg>