<svg xmlns:xlink="http://www.w3.org/1999/xlink" xmlns="http://www.w3.org/2000/svg" class="AssemblyIcon AssemblyIcon--small" aria-label="TikTok" width="24"  height="24" ><defs><symbol id="tiktok" viewBox="0 0 24 24">
  <path d="M12.4565 2.29318C12.4556 2.0214 12.4783 1.99968 12.7388 2C13.6651 2.0016 14.5911 1.99905 15.5173 2.00703C15.9213 2.01054 15.8625 2.00479 15.8853 2.34491C16.0312 4.52966 17.7394 6.40622 19.8771 6.72909C20.059 6.75655 20.2422 6.77667 20.4257 6.78977C20.5492 6.79839 20.6051 6.84949 20.6048 6.97755C20.6029 7.99918 20.6032 9.02114 20.6048 10.0428C20.6048 10.1728 20.5615 10.2411 20.4206 10.2353C18.8403 10.1715 17.3791 9.73395 16.0669 8.82409C16.0198 8.79152 15.9598 8.7781 15.9055 8.75575C15.8891 8.81451 15.8584 8.87327 15.8587 8.93172C15.8616 9.38904 15.8758 9.84604 15.8764 10.3034C15.8805 12.9563 16.3757 16.1397 15.175 18.5981C14.4534 20.0761 13.1004 21.214 11.5466 21.7119C9.56525 22.3468 7.28004 21.9147 5.66529 20.5909C2.21979 17.7665 2.80309 12.1601 6.69105 10.0696C7.81534 9.46505 9.01226 9.24501 10.2761 9.38042C10.41 9.39479 10.4688 9.45004 10.4685 9.59279C10.4647 10.6413 10.465 11.6897 10.4685 12.7379C10.4688 12.8793 10.4255 12.91 10.2897 12.8765C8.5057 12.4354 6.76874 13.8058 6.76084 15.6571C6.75452 17.1441 7.91482 18.4129 9.39376 18.5371C10.8487 18.6591 12.1773 17.6097 12.4123 16.1467C12.4417 15.964 12.4537 15.7766 12.454 15.5913C12.4568 13.4574 12.4587 3.09158 12.4562 2.29318H12.4565Z" fill-rule="evenodd"></path>
</symbol></defs><noscript fill="#F6F7FB"></noscript><use xlink:href="#tiktok" fill="#F6F7FB"></use><noscript fill="#F6F7FB"></noscript></svg>