<svg xmlns:xlink="http://www.w3.org/1999/xlink" xmlns="http://www.w3.org/2000/svg" class="UIIcon UIIcon--plane" width="50"  height="50" ><defs><symbol id="plane" viewBox="0 0 24 24">
    <path fill-rule="evenodd" clip-rule="evenodd" d="M21 14.4138C21 14.0872 20.82 13.7878 20.5358 13.6063L13.5 9.5V4.36095C13.5 3.60789 12.7863 3 12 3C11.2137 3 10.5 3.60789 10.5 4.36095V9.5L3.46421 13.6063C3.18 13.7787 3 14.0872 3 14.4138C3 15.049 3.64421 15.5117 4.28842 15.3211L10.5 13.434V18.4241L8.87368 19.649C8.75053 19.7306 8.68421 19.8667 8.68421 20.0119V20.5472C8.68421 20.8466 8.98737 21.0644 9.29053 20.9827L12 20.2387L14.7095 20.9827C15.0126 21.0644 15.3158 20.8466 15.3158 20.5472V20.0119C15.3158 19.8667 15.2495 19.7306 15.1263 19.649L13.5 18.4241V13.434L19.7116 15.3211C20.3558 15.5117 21 15.049 21 14.4138Z"></path>
</symbol></defs><noscript fill="#F6F7FB"></noscript><use xlink:href="#plane" fill="#F6F7FB"></use><noscript fill="#F6F7FB"></noscript></svg>