<svg xmlns:xlink="http://www.w3.org/1999/xlink" xmlns="http://www.w3.org/2000/svg" class="UIIcon UIIcon--mail" width="50"  height="50" ><defs><symbol id="mail" viewBox="0 0 24 24">
    <path d="M22 5C22 3.7625 21.1 3 20 3H4C2.9 3 2 3.7625 2 5V19C2 20.2375 2.9 21 4 21H20C21.1 21 22 20.2375 22 19V5ZM20 5L12.5665 10.1105C12.2253 10.3451 11.7747 10.3451 11.4335 10.1105L4 5H20ZM20 19H4V7.5L11.4335 12.6105C11.7747 12.8451 12.2253 12.8451 12.5665 12.6105L20 7.5V19Z"></path>
</symbol></defs><noscript fill="#F6F7FB"></noscript><use xlink:href="#mail" fill="#F6F7FB"></use><noscript fill="#F6F7FB"></noscript></svg>