<svg xmlns:xlink="http://www.w3.org/1999/xlink" xmlns="http://www.w3.org/2000/svg" class="UIIcon UIIcon--profile" width="50"  height="50" ><defs><symbol id="profile" viewBox="0 0 24 24">
    <path fill-rule="evenodd" clip-rule="evenodd" d="M19 12C19 15.866 15.866 19 12 19C8.13401 19 5 15.866 5 12C5 8.13401 8.13401 5 12 5C15.866 5 19 8.13401 19 12ZM21 12C21 16.9706 16.9706 21 12 21C7.02944 21 3 16.9706 3 12C3 7.02944 7.02944 3 12 3C16.9706 3 21 7.02944 21 12ZM10.2425 8.03009C9.70674 7.89615 9.16381 8.22191 9.02986 8.7577L8.18561 12.1347C7.94871 13.0823 8.66542 14.0002 9.64219 14.0002H10.9404C11.4927 14.0002 11.9404 13.5525 11.9404 13.0002C11.9404 12.448 11.4927 12.0002 10.9404 12.0002H10.2808L10.9701 9.24277C11.1041 8.70698 10.7783 8.16404 10.2425 8.03009ZM14.2312 14.5591C14.5723 14.1247 15.2009 14.0491 15.6353 14.3901C16.0697 14.7312 16.1453 15.3598 15.8043 15.7942C15.3782 16.3369 14.5987 17.0092 13.5698 17.3452C12.4955 17.696 11.1872 17.6635 9.849 16.8122C9.38301 16.5157 9.24557 15.8976 9.542 15.4317C9.83844 14.9657 10.4565 14.8282 10.9225 15.1247C11.7238 15.6344 12.4053 15.6215 12.949 15.444C13.538 15.2516 14.0048 14.8475 14.2312 14.5591Z"></path>
</symbol></defs><noscript fill="#F6F7FB"></noscript><use xlink:href="#profile" fill="#F6F7FB"></use><noscript fill="#F6F7FB"></noscript></svg>