<svg xmlns:xlink="http://www.w3.org/1999/xlink" xmlns="http://www.w3.org/2000/svg" class="UIIcon UIIcon--study" width="50"  height="50" ><defs><symbol id="study" viewBox="0 0 24 24">
    <path fill-rule="evenodd" clip-rule="evenodd" d="M12 14.1719L10.6426 12.9174C9.1049 11.4964 7.16347 10.4993 5 10.1087V16.2669C5 16.6453 5.05603 16.859 5.09504 16.9618C7.66528 17.3106 10.0172 18.3033 12.0016 19.7544C13.9976 18.3045 16.369 17.3036 18.9623 16.9639C18.9658 16.9605 18.9695 16.9564 18.9734 16.9519C18.9808 16.9432 18.9873 16.9341 18.9926 16.9252C18.9958 16.9199 18.9982 16.9153 19 16.9115V10.1087C16.8365 10.4993 14.8951 11.4964 13.3574 12.9174L12 14.1719ZM19.29 18.9383C16.77 19.2549 14.48 20.2937 12.61 21.8075C12.26 22.0845 11.69 22.0548 11.34 21.7679C9.48 20.264 7.21 19.245 4.71 18.9284C3.72 18.7997 3 17.9291 3 16.2669V10.0931C3 8.8762 4.11 7.92639 5.32 8.13416C7.88 8.58928 10.18 9.76665 12 11.4486C13.82 9.76665 16.12 8.58928 18.68 8.13416C19.89 7.92639 21 8.8762 21 10.0931V16.9397C21 17.8895 20.23 18.8096 19.29 18.9383ZM11.9999 7.93632C13.6599 7.93632 14.9999 6.61054 14.9999 4.96816C14.9999 3.32578 13.6599 2 11.9999 2C10.3399 2 8.99991 3.32578 8.99991 4.96816C8.99991 6.61054 10.3399 7.93632 11.9999 7.93632Z"></path>
</symbol></defs><noscript fill="#F6F7FB"></noscript><use xlink:href="#study" fill="#F6F7FB"></use><noscript fill="#F6F7FB"></noscript></svg>