<svg xmlns:xlink="http://www.w3.org/1999/xlink" xmlns="http://www.w3.org/2000/svg" class="UIIcon UIIcon--eye" width="50"  height="50" ><defs><symbol id="eye" viewBox="0 0 24 24">
    <path d="M12 7C15.1737 7 18.0356 8.50542 19.6747 11.1612C19.8338 11.419 20 11.7095 20 12C20 12.2905 19.8338 12.581 19.6747 12.8388C18.0356 15.4946 15.1737 17 12 17C8.82633 17 5.96437 15.4946 4.32528 12.8388C4.16623 12.581 4 12.2905 4 12C4 11.7095 4.16623 11.419 4.32528 11.1612C5.96437 8.50542 8.82633 7 12 7ZM12 5C7.65838 5 3.91354 7.57284 2.15855 11.2932C1.94715 11.7413 1.94715 12.2587 2.15855 12.7068C3.91354 16.4272 7.65838 19 12 19C16.3416 19 20.0865 16.4272 21.8415 12.7068C22.0529 12.2587 22.0529 11.7413 21.8415 11.2932C20.0865 7.57284 16.3416 5 12 5ZM12 10C13.1247 10 14 10.7962 14 12C14 13.2038 13.1709 14 12 14C10.8291 14 10 13.2191 10 12C10 10.7809 10.8753 10 12 10ZM12 8C9.71269 8 8 9.68533 8 12C8 14.3147 9.71269 16 12 16C14.2873 16 16 14.3147 16 12C16 9.68533 14.2873 8 12 8Z"></path>
</symbol></defs><noscript fill="#F6F7FB"></noscript><use xlink:href="#eye" fill="#F6F7FB"></use><noscript fill="#F6F7FB"></noscript></svg>