<svg xmlns:xlink="http://www.w3.org/1999/xlink" xmlns="http://www.w3.org/2000/svg" class="AssemblyIcon AssemblyIcon--medium" role="presentation" width="32"  height="32" ><defs><symbol id="system-face" viewBox="0 0 32 32">
<path fill-rule="evenodd" clip-rule="evenodd" d="M25.3333 16C25.3333 21.1547 21.1547 25.3333 16 25.3333C10.8453 25.3333 6.66667 21.1547 6.66667 16C6.66667 10.8453 10.8453 6.66667 16 6.66667C21.1547 6.66667 25.3333 10.8453 25.3333 16ZM28 16C28 22.6274 22.6274 28 16 28C9.37258 28 4 22.6274 4 16C4 9.37258 9.37258 4 16 4C22.6274 4 28 9.37258 28 16ZM13.6567 10.7068C12.9423 10.5282 12.2184 10.9625 12.0398 11.6769L10.9141 16.1796C10.5983 17.4431 11.5539 18.667 12.8562 18.667H14.5872C15.3236 18.667 15.9206 18.07 15.9206 17.3336C15.9206 16.5973 15.3236 16.0003 14.5872 16.0003H13.7077L14.6269 12.3237C14.8055 11.6093 14.3711 10.8854 13.6567 10.7068ZM18.9749 19.4121C19.4297 18.833 20.2679 18.7321 20.8471 19.1868C21.4262 19.6416 21.5271 20.4798 21.0724 21.059C20.5042 21.7825 19.465 22.6789 18.0931 23.1269C16.6606 23.5947 14.9163 23.5513 13.132 22.4162C12.5107 22.021 12.3274 21.1969 12.7227 20.5755C13.1179 19.9542 13.942 19.771 14.5633 20.1662C15.6318 20.8459 16.5405 20.8287 17.2653 20.592C18.0507 20.3355 18.6731 19.7966 18.9749 19.4121Z"></path>
</symbol></defs><noscript fill="#F6F7FB"></noscript><use xlink:href="#system-face" fill="#F6F7FB"></use><noscript fill="#F6F7FB"></noscript></svg>