<svg xmlns:xlink="http://www.w3.org/1999/xlink" xmlns="http://www.w3.org/2000/svg" class="AssemblyIcon AssemblyIcon--medium" role="presentation" width="24"  height="24" ><defs><symbol id="light-mode" viewBox="0 0 24 24">
    <path fill-rule="evenodd" clip-rule="evenodd" d="M13 2.5C13 1.94772 12.5523 1.5 12 1.5C11.4477 1.5 11 1.94772 11 2.5V4.5C11 5.05228 11.4477 5.5 12 5.5C12.5523 5.5 13 5.05228 13 4.5V2.5ZM5.62134 4.70705C5.23081 4.31652 4.59765 4.31652 4.20712 4.70705C3.8166 5.09757 3.8166 5.73074 4.20712 6.12126L5.62134 7.53547C6.01186 7.926 6.64502 7.926 7.03555 7.53547C7.42607 7.14495 7.42607 6.51179 7.03555 6.12126L5.62134 4.70705ZM20.0355 4.70714C20.4261 5.09766 20.4261 5.73083 20.0355 6.12135L18.6213 7.53556C18.2308 7.92609 17.5976 7.92609 17.2071 7.53556C16.8166 7.14504 16.8166 6.51187 17.2071 6.12135L18.6213 4.70714C19.0118 4.31661 19.645 4.31661 20.0355 4.70714ZM12 15.5C13.933 15.5 15.5 13.933 15.5 12C15.5 10.067 13.933 8.49997 12 8.49997C10.067 8.49997 8.50002 10.067 8.50002 12C8.50002 13.933 10.067 15.5 12 15.5ZM12 17.5C15.0376 17.5 17.5 15.0375 17.5 12C17.5 8.9624 15.0376 6.49997 12 6.49997C8.96245 6.49997 6.50002 8.9624 6.50002 12C6.50002 15.0375 8.96245 17.5 12 17.5ZM7.03555 18.1214C7.42608 17.7308 7.42608 17.0977 7.03555 16.7071C6.64503 16.3166 6.01186 16.3166 5.62134 16.7071L4.20712 18.1214C3.8166 18.5119 3.8166 19.145 4.20712 19.5356C4.59765 19.9261 5.23081 19.9261 5.62134 19.5356L7.03555 18.1214ZM17.2071 16.707C17.5976 16.3165 18.2308 16.3165 18.6213 16.707L20.0355 18.1213C20.4261 18.5118 20.4261 19.145 20.0355 19.5355C19.645 19.926 19.0118 19.926 18.6213 19.5355L17.2071 18.1213C16.8166 17.7307 16.8166 17.0976 17.2071 16.707ZM12 18.5C12.5523 18.5 13 18.9477 13 19.5V21.5C13 22.0523 12.5523 22.5 12 22.5C11.4477 22.5 11 22.0523 11 21.5V19.5C11 18.9477 11.4477 18.5 12 18.5ZM18.5 12C18.5 11.4477 18.9477 11 19.5 11H21.5C22.0523 11 22.5 11.4477 22.5 12C22.5 12.5523 22.0523 13 21.5 13H19.5C18.9477 13 18.5 12.5523 18.5 12ZM2.5 11C1.94772 11 1.5 11.4477 1.5 12C1.5 12.5523 1.94772 13 2.5 13H4.5C5.05228 13 5.5 12.5523 5.5 12C5.5 11.4477 5.05228 11 4.5 11H2.5Z"></path>
</symbol></defs><noscript fill="#F6F7FB"></noscript><use xlink:href="#light-mode" fill="#F6F7FB"></use><noscript fill="#F6F7FB"></noscript></svg>