<svg xmlns:xlink="http://www.w3.org/1999/xlink" xmlns="http://www.w3.org/2000/svg" class="UIIcon UIIcon--social-facebook-round-color" width="50"  height="50" ><defs><symbol fill="none" id="social-facebook-round-color" viewBox="0 0 24 24">
	<path fill-rule="evenodd" clip-rule="evenodd" d="M12 2C17.5228 2 22 6.50451 22 12.0611C22 17.0829 18.3431 21.2452 13.5625 22V14.9695H15.8926L15.8926 14.9694L16.3359 12.0612L16.3359 12.0611H13.5625V10.1738C13.5625 9.91742 13.6027 9.66311 13.6988 9.43616C13.901 8.9589 14.3502 8.60268 15.1921 8.60268H16.4531V8.6026H16.4531V6.12663C16.4531 6.12663 15.3087 5.93013 14.2146 5.93013C12.5438 5.93013 11.2964 6.67532 10.7469 8.06236C10.5451 8.57162 10.4375 9.16741 10.4375 9.84461V12.0611H7.89844V12.0612H7.8984V14.9695H10.4375V22C5.65683 21.2452 2 17.0829 2 12.0611C2 6.50451 6.47715 2 12 2Z" fill="#1877F2"></path>
</symbol></defs><noscript fill="#F6F7FB"></noscript><use xlink:href="#social-facebook-round-color" fill="#F6F7FB"></use><noscript fill="#F6F7FB"></noscript></svg>