<svg xmlns:xlink="http://www.w3.org/1999/xlink" xmlns="http://www.w3.org/2000/svg" aria-label="chuông" class="AssemblyIcon AssemblyIcon--medium" role="img" width="24"  height="24" ><defs><symbol id="bell" viewBox="0 0 24 24">
    <path d="M12 22C13.2375 22 14.5 21.1282 14.5 20H9.5C9.5 21.1282 10.7625 22 12 22ZM19 16V10.7179C19 7.56923 16.9163 4.93333 13.6875 4.2359V3.53846C13.6875 2.68718 12.9338 2 12 2C11.0662 2 10.3125 2.68718 10.3125 3.53846V4.2359C7.095 4.93333 5 7.55897 5 10.7179V16L3.24041 17.6694C3.08692 17.815 3 18.0173 3 18.2288C3 18.6547 3.34527 19 3.77118 19H20.2288C20.6547 19 21 18.6547 21 18.2288C21 18.0173 20.9131 17.815 20.7596 17.6694L19 16ZM17 17H7V10.7179C7 8.17436 9.19875 6 12 6C14.8013 6 17 8.17436 17 10.7179V17Z"></path>
</symbol></defs><noscript fill="#F6F7FB"></noscript><use xlink:href="#bell" fill="#F6F7FB"></use><noscript fill="#F6F7FB"></noscript></svg>