<svg xmlns:xlink="http://www.w3.org/1999/xlink" xmlns="http://www.w3.org/2000/svg" class="UIIcon UIIcon--google-black" width="50"  height="50" ><defs><symbol id="google-black" viewBox="0 0 24 24">
    <path fill-rule="evenodd" clip-rule="evenodd" d="M12.1406 10.0198V13.9802C12.1406 13.9802 16.0366 13.975 17.6229 13.975C16.7639 16.5425 15.4281 17.9406 12.1406 17.9406C8.81356 17.9406 6.21687 15.2809 6.21687 12C6.21687 8.71911 8.81356 6.05941 12.1406 6.05941C13.8996 6.05941 15.0357 6.66911 16.0777 7.51891C16.9119 6.69634 16.8422 6.57911 18.9644 4.60277C17.1629 2.98574 14.7685 2 12.1406 2C6.54007 2 2 6.47713 2 12C2 17.5228 6.54007 22 12.1406 22C20.5118 22 22.5579 14.8119 21.8795 10.0198C19.8978 10.0198 12.1406 10.0198 12.1406 10.0198Z"></path>
</symbol></defs><noscript fill="#F6F7FB"></noscript><use xlink:href="#google-black" fill="#F6F7FB"></use><noscript fill="#F6F7FB"></noscript></svg>