<svg xmlns:xlink="http://www.w3.org/1999/xlink" xmlns="http://www.w3.org/2000/svg" class="UIIcon UIIcon--dark-mode" width="50"  height="50" ><defs><symbol id="dark-mode" viewBox="0 0 24 24">
<path fill-rule="evenodd" clip-rule="evenodd" d="M15.3485 16.2319C16.975 16.2823 16.5942 16.3083 16.2079 16.3083C11.5366 16.3083 7.74978 12.5215 7.74978 7.85026C7.74978 7.46387 7.77581 7.08301 7.82629 6.70948C6.40018 7.94801 5.5 9.77429 5.5 11.8083C5.5 15.536 8.52194 18.558 12.2497 18.558C14.2837 18.558 16.1099 17.6579 17.3485 16.2319ZM18.7595 13.7847C19.6188 13.4147 20.7716 14.0115 20.4423 14.8872C19.1966 18.2005 15.9985 20.558 12.2497 20.558C7.41738 20.558 3.5 16.6406 3.5 11.8083C3.5 8.05954 5.85759 4.8614 9.17098 3.61568C10.0467 3.28644 10.6435 4.43925 10.2735 5.29854C9.93646 6.08127 9.74978 6.94396 9.74978 7.85026C9.74978 11.417 12.6412 14.3083 16.2079 14.3083C17.1142 14.3083 17.9768 14.1217 18.7595 13.7847Z"></path>
</symbol></defs><noscript fill="#F6F7FB"></noscript><use xlink:href="#dark-mode" fill="#F6F7FB"></use><noscript fill="#F6F7FB"></noscript></svg>