<svg xmlns:xlink="http://www.w3.org/1999/xlink" xmlns="http://www.w3.org/2000/svg" class="AssemblyIcon AssemblyIcon--large" role="presentation" width="64"  height="64" ><defs><symbol fill="none" id="mode-match-2022" viewBox="0 0 32 32">
<path fill-rule="evenodd" clip-rule="evenodd" d="M4.66664 4C3.19388 4 1.99997 5.26414 1.99997 6.82353V15.2941C1.99997 16.8535 3.19388 18.1177 4.66664 18.1177H23.3333C24.8061 18.1177 26 16.8535 26 15.2941V6.82353C26 5.26414 24.8061 4 23.3333 4H4.66664ZM8.66659 9.64704C7.93021 9.64704 7.33325 10.2791 7.33325 11.0588C7.33325 11.8385 7.93021 12.4706 8.66659 12.4706H19.3333C20.0696 12.4706 20.6666 11.8385 20.6666 11.0588C20.6666 10.2791 20.0696 9.64704 19.3333 9.64704H8.66659Z" fill="#4255FF"></path>
<path fill-rule="evenodd" clip-rule="evenodd" d="M16.6666 15.2939C15.1938 15.2939 13.9999 16.5581 13.9999 18.1175V25.1763C13.9999 26.7357 15.1938 27.9998 16.6666 27.9998H27.3332C28.806 27.9998 29.9999 26.7357 29.9999 25.1763V18.1175C29.9999 16.5581 28.806 15.2939 27.3332 15.2939H16.6666ZM19.3335 20.2352C18.5971 20.2352 18.0001 20.8672 18.0001 21.6469C18.0001 22.4266 18.5971 23.0587 19.3335 23.0587H24.6668C25.4032 23.0587 26.0001 22.4266 26.0001 21.6469C26.0001 20.8672 25.4032 20.2352 24.6668 20.2352H19.3335Z" fill="#7583FF"></path>
</symbol></defs><noscript fill="#F6F7FB"></noscript><use xlink:href="#mode-match-2022" fill="#F6F7FB"></use><noscript fill="#F6F7FB"></noscript></svg>